<?xml version="1.0" encoding="utf-8"?>
<!-- Generator: Adobe Illustrator 16.0.0, SVG Export Plug-In . SVG Version: 6.00 Build 0)  -->
<!DOCTYPE svg PUBLIC "-//W3C//DTD SVG 1.1//EN" "http://www.w3.org/Graphics/SVG/1.1/DTD/svg11.dtd">
<svg version="1.1" id="圖層_1" xmlns="http://www.w3.org/2000/svg" xmlns:xlink="http://www.w3.org/1999/xlink" x="0px" y="0px"
	 width="1296px" height="422px" viewBox="0 0 1296 422" enable-background="new 0 0 1296 422" xml:space="preserve">
<g>
	<path fill="#D84C93" stroke="#000000" stroke-miterlimit="10" d="M202.159,9c4.313,1.153,8.71,2.063,12.926,3.503
		c17.633,6.022,30.272,18.245,38.922,34.142c13.994,25.718,27.618,51.67,40.385,78.014c26.19,54.039,52.234,108.163,77.305,162.726
		c14.542,31.648,8.884,62.171-11.942,89.248c-24.047,31.265-65.245,40.208-103.874,23.923c-21.106-8.899-38.31-23.264-54.299-39.281
		c-2.692-2.696-5.504-5.273-8.593-8.224c-1.526,1.62-3.204,3.423-4.905,5.202c-16.704,17.465-34.893,32.963-57.481,42.402
		c-40.889,17.086-84.261,5.226-107.806-29.371c-7.13-10.479-11.705-21.986-13.674-34.522c-0.201-1.285-0.622-2.537-0.94-3.804
		c0-6.332,0-12.665,0-18.997c4.205-12.702,7.105-26.028,12.831-38.005c32.829-68.658,66.243-137.038,99.688-205.401
		c5.319-10.872,11.252-21.534,17.869-31.66c8.937-13.677,21.714-22.763,37.484-27.394c3.327-0.977,6.734-1.675,10.105-2.502
		C191.494,9,196.826,9,202.159,9z M176.852,334.565c-1.672-2.155-3.103-3.983-4.517-5.824
		c-15.065-19.608-28.612-40.14-37.639-63.315c-6.719-17.251-11.256-34.997-8.122-53.667c5.473-32.596,32.35-55.091,65.905-55.649
		c32.531-0.542,59.755,19.404,67.221,49.656c3.421,13.863,2.225,27.815-1.131,41.554c-6.563,26.863-20.478,50.049-36.553,72.107
		c-3.609,4.953-7.412,9.768-11.007,14.49c7.47,7.606,14.413,15.257,21.977,22.236c10.215,9.423,21.631,17.311,34.7,22.275
		c25.35,9.629,48.869,7.107,68.88-12.397c17.993-17.536,22.417-44.408,11.924-69.485c-4.427-10.581-9.076-21.088-14.081-31.406
		c-28.819-59.425-57.646-118.848-86.793-178.112c-6.002-12.205-12.254-24.573-20.351-35.4c-16.447-21.991-48.64-21.607-65.664-0.041
		c-3.584,4.542-6.684,9.576-9.327,14.731c-17.994,35.088-36.264,70.046-53.555,105.48c-19.843,40.662-38.992,81.667-57.992,122.733
		c-9.291,20.08-10.389,40.558,1.231,60.367c15.622,26.63,48.02,36.398,78.67,23.623
		C143.167,369.129,160.425,352.809,176.852,334.565z M193.718,313.785c17.365-22.859,32.925-45.734,40.088-73.194
		c2.503-9.595,3.179-19.365,0.864-29.145c-6.852-28.949-43.471-40.837-67.723-21.869c-15.297,11.965-17.501,28.399-14.177,46.001
		C158.407,265.421,175.339,289.492,193.718,313.785z"/>
	<path fill="#D84C93" stroke="#000000" stroke-miterlimit="10" d="M806.459,84.079c12.536,0,24.938,0,38.01,0
		c0,13.975,0,27.734,0,41.495c0,13.605,0,27.212,0,40.848c0.842,0,1.268,0.13,1.42-0.019c20.722-20.237,56.023-17.16,78.571-2.727
		c26.293,16.83,37.138,41.702,35.786,72.304c-1.676,37.903-26.858,66.869-64.118,73.48c-19.108,3.391-36.753,0.076-52.021-14.761
		c0,2.428-0.008,3.83,0.002,5.233c0.033,4.287-2.197,6.621-6.371,6.67c-10.301,0.123-20.604,0.041-31.279,0.041
		C806.459,232.303,806.459,158.319,806.459,84.079z M844.469,231.208c0,7.324-0.334,14.672,0.162,21.962
		c0.203,3.012,1.473,6.567,3.485,8.736c8.852,9.533,20.2,12.797,33.01,12.098c19.827-1.081,35.727-13.752,39.763-31.983
		c4.52-20.419-3.355-39.575-19.94-48.502c-18.16-9.775-40.317-6.708-53.669,7.714c-1.596,1.724-2.58,4.609-2.686,7.008
		C844.258,215.883,844.471,223.55,844.469,231.208z"/>
	<path fill="#D84C93" stroke="#000000" stroke-miterlimit="10" d="M1172.066,294.601c0,2.614-0.006,4.053,0.001,5.491
		c0.019,3.754-1.844,6.332-5.537,6.414c-10.621,0.234-21.252,0.082-32.181,0.082c0-74.295,0-148.183,0-222.418
		c12.436,0,24.833,0,38.04,0c0,27.462,0,54.95,0,83.008c42.735-30.96,101.254-8.531,113.396,43.131
		c9.485,40.359-7.324,77.117-41.844,93.121c-14.716,6.821-30.215,9.075-46.275,5.627
		C1188.142,307.012,1179.982,302.382,1172.066,294.601z M1205.571,274.001c0.832,0,1.665,0.023,2.497-0.003
		c20.25-0.646,36.206-13.007,40.646-31.479c4.781-19.903-2.799-39.342-18.917-48.512c-17.927-10.199-39.985-7.68-53.83,6.524
		c-1.939,1.989-3.321,5.402-3.383,8.191c-0.329,14.808-0.344,29.632,0.004,44.439c0.07,2.974,1.473,6.552,3.479,8.732
		C1183.915,270.426,1194.009,274.186,1205.571,274.001z"/>
	<path fill="#D84C93" stroke="#000000" stroke-miterlimit="10" d="M575.472,167.148c0.121-2.103,0.216-3.399,0.266-4.696
		c0.155-3.996,2.214-6.275,6.21-6.312c10.32-0.094,20.642-0.032,31.577-0.032c0.104,1.978,0.274,3.729,0.274,5.48
		c0.015,46.489-0.064,92.978,0.127,139.466c0.02,4.8-1.531,5.885-5.945,5.699c-7.651-0.319-15.326-0.078-22.991-0.092
		c-7.888-0.014-8.939-1.021-9.281-8.75c-0.027-0.63-0.156-1.256-0.232-1.844c-0.505-0.043-0.955-0.213-1.09-0.075
		c-19.434,19.823-53.479,17.896-76.346,4.554c-27.343-15.954-39.188-40.899-38.668-71.853c0.609-36.344,23.746-65.677,57.954-74.131
		C535.524,150.066,556.168,150.074,575.472,167.148z M575.722,231.601c0-7.329-0.239-14.668,0.091-21.981
		c0.193-4.276-1.45-7.221-4.386-10.022c-12.905-12.314-33.396-14.974-50.753-6.443c-15.753,7.742-24.462,24.473-22.317,43.247
		c1.978,17.298,10.826,29.667,27.496,35.224c16.94,5.65,32.986,3.992,46.188-9.334c2.059-2.078,3.314-5.707,3.52-8.717
		C576.059,246.28,575.722,238.929,575.722,231.601z"/>
	<path fill="#D84C93" stroke="#000000" stroke-miterlimit="10" d="M1075.659,306.727c0-7.73,0.027-15.045-0.005-22.359
		c-0.104-22.981,0-45.966-0.405-68.942c-0.469-26.573-19.365-31.406-39.237-26.897c-2.877,0.652-5.622,2.029-8.316,3.306
		c-8.718,4.132-13.404,9.776-13.062,20.753c0.914,29.285,0.311,58.618,0.311,87.933c0,1.805,0,3.608,0,6.146
		c-2.338,0-4.275,0-6.211,0c-9.494-0.002-18.989-0.061-28.481,0.035c-2.626,0.027-3.939-0.577-3.935-3.58
		c0.08-48.301,0.073-96.602,0.104-144.902c0-0.472,0.228-0.943,0.501-2c10.153,0,20.413-0.227,30.644,0.228
		c1.657,0.074,3.553,2.963,4.638,4.936c0.777,1.413,0.384,3.469,0.58,6.159c8.09-7.338,16.69-12.144,26.693-13.961
		c20.294-3.688,39.021-0.517,55.518,12.706c13.302,10.661,18.428,25.234,18.703,41.379c0.56,32.633,0.251,65.281,0.283,97.925
		c0.001,0.291-0.227,0.583-0.456,1.136C1101.212,306.727,1088.804,306.727,1075.659,306.727z"/>
	<path fill="#D84C93" stroke="#000000" stroke-miterlimit="10" d="M790.455,189.601c-10.724-2.452-20.616-3.439-30.508-0.712
		c-2.869,0.79-5.721,1.786-8.412,3.048c-8.652,4.058-13.74,9.383-13.375,20.549c0.958,29.278,0.323,58.608,0.323,87.917
		c0,1.978,0,3.957,0,6.26c-12.785,0-25.206,0-38.007,0c0-49.898,0-99.909,0-150.514c10.762,0,21.537-0.268,32.273,0.254
		c1.864,0.09,3.895,3.317,5.212,5.482c0.727,1.195,0.131,3.195,0.131,5.587c2.462-1.97,4.301-3.574,6.271-4.996
		c12.687-9.157,26.742-12.336,42.08-9.186c1.497,0.308,3.806,2.105,3.837,3.263C790.576,167.333,790.455,178.121,790.455,189.601z"
		/>
	<path fill="#D84C93" stroke="#000000" stroke-miterlimit="10" d="M638.095,156.453c1.134-0.132,2.092-0.338,3.051-0.34
		c11.451-0.022,22.904-0.015,34.669-0.015c0,50.271,0,100.113,0,150.262c-12.541,0-24.938,0-37.72,0
		C638.095,256.332,638.095,206.507,638.095,156.453z"/>
	<path fill="#D84C93" stroke="#000000" stroke-miterlimit="10" d="M656.72,135.32c-14.529-0.089-25.806-11.531-25.74-26.117
		c0.063-14.369,11.293-25.757,25.516-25.876c14.411-0.121,26.591,11.956,26.477,26.25
		C682.857,123.952,671.173,135.409,656.72,135.32z"/>
</g>
</svg>
